<svg id="Capa_1" enable-background="new 0 0 512 512" height="512" viewBox="0 0 512 512" width="512" xmlns="http://www.w3.org/2000/svg"><g><g><path d="m84.089 198.714h344.081v277.889h-344.081z" fill="#fff5f5"/><path d="m84.089 198.714h31.97v277.889h-31.97z" fill="#eee1dd"/><path d="m286.581 285.969v134.738c0 2.123 1.721 3.844 3.844 3.844h87.812c2.123 0 3.844-1.721 3.844-3.844v-134.738z" fill="#80b4fb"/><path d="m308.081 420.707v-134.738h-21.5v134.738c0 2.123 1.721 3.844 3.844 3.844h21.5c-2.123 0-3.844-1.721-3.844-3.844z" fill="#61a2f9"/><path d="m130.328 285.969h115.933v190.635h-115.933z" fill="#aa8080"/><path d="m246.261 287.969v-29.224c0-3.904-3.194-7.098-7.098-7.098h-101.737c-3.904 0-7.098 3.194-7.098 7.098v29.224z" fill="#c3a2a2"/><g><path d="m130.328 285.969h34.397v190.635h-34.397z" fill="#8b5e5e"/><path d="m171.823 251.646h-34.397c-3.904 0-7.098 3.194-7.098 7.098v29.224h34.397v-29.224c0-3.904 3.195-7.098 7.098-7.098z" fill="#aa8080"/></g><path d="m438.164 473.603h-364.07c-4.255 0-7.704 3.449-7.704 7.705v15.488c0 4.255 3.449 7.705 7.705 7.705h364.07c4.255 0 7.705-3.449 7.705-7.705v-15.488c-.002-4.255-3.451-7.705-7.706-7.705z" fill="#ccf49f"/><path d="m115.022 496.795v-15.488c0-4.255 3.449-7.704 7.704-7.704h-48.632c-4.255 0-7.705 3.449-7.705 7.704v15.488c0 4.255 3.449 7.705 7.705 7.705h48.633c-4.255 0-7.705-3.449-7.705-7.705z" fill="#b3e59f"/><path d="m346.983 36.397h74.824v35.154h-74.824z" fill="#eee1dd"/><path d="m346.983 36.397h35.098v35.154h-35.098z" fill="#ccbeb9"/><path d="m353.496 100.558 68.311 57.455v-57.455z" fill="#eee1dd"/><path d="m382.081 100.558h-28.585l28.585 24.042z" fill="#ccbeb9"/><path d="m421.807 69.967h-74.824v25.113l8.397 7.062h66.427z" fill="#ccbeb9"/><path d="m382.081 69.967h-35.098v25.113l8.397 7.062h26.701z" fill="#b9acac"/><path d="m437.884 30.692v-15.488c0-4.255-3.449-7.705-7.705-7.705h-91.569c-4.255 0-7.704 3.45-7.704 7.705v15.488c0 4.256 3.449 7.705 7.705 7.705h91.568c4.255 0 7.705-3.449 7.705-7.705z" fill="#fff5f5"/><path d="m371.656 30.692v-15.487c0-4.255 3.449-7.705 7.704-7.705h-40.75c-4.255 0-7.704 3.45-7.704 7.705v15.488c0 4.256 3.449 7.704 7.705 7.704h40.75c-4.256 0-7.705-3.449-7.705-7.705z" fill="#eee1dd"/><path d="m460.247 187.345-198.557-167.004c-3.214-2.704-7.907-2.704-11.121 0l-198.558 167.004c-6.168 5.188-2.5 15.25 5.56 15.25h397.115c8.061-.001 11.729-10.062 5.561-15.25z" fill="#e27a66"/><path d="m100.644 187.345 179.801-151.229-18.756-15.775c-3.214-2.704-7.907-2.704-11.121 0l-198.557 167.004c-6.168 5.188-2.5 15.25 5.561 15.25h48.633c-8.061-.001-11.729-10.062-5.561-15.25z" fill="#dd544f"/><ellipse cx="256.129" cy="124.367" fill="#9dc6fb" rx="41.132" ry="41.132" transform="matrix(.998 -.071 .071 .998 -8.172 18.47)"/><path d="m235.997 124.367c0-19.087 13.003-35.133 30.633-39.775-3.353-.883-6.87-1.358-10.5-1.358-22.717 0-41.133 18.415-41.133 41.132 0 22.716 18.416 41.132 41.133 41.132 3.63 0 7.147-.475 10.5-1.357-17.63-4.641-30.633-20.687-30.633-39.774z" fill="#80b4fb"/><path d="m378.237 251.646h-87.812c-2.123 0-3.844 1.721-3.844 3.844v32.478h95.5v-32.478c0-2.123-1.721-3.844-3.844-3.844z" fill="#9dc6fb"/><path d="m311.925 251.646h-21.5c-2.123 0-3.844 1.721-3.844 3.844v32.478h21.5v-32.478c0-2.123 1.721-3.844 3.844-3.844z" fill="#80b4fb"/></g><g><path d="m464.946 181.605-35.769-30.084c0-10.563 0-93.219 0-105.625h.872c8.384 0 15.205-6.82 15.205-15.204v-15.487c.001-8.384-6.82-15.205-15.204-15.205h-28.284c-4.143 0-7.5 3.358-7.5 7.5s3.357 7.5 7.5 7.5h28.284c.113 0 .205.092.205.205v15.488c0 .112-.092.204-.205.204h-8.372-74.824-8.372c-.112 0-.204-.092-.204-.204v-15.488c0-.113.092-.205.204-.205h28.284c4.143 0 7.5-3.358 7.5-7.5s-3.357-7.5-7.5-7.5h-28.284c-8.384 0-15.204 6.821-15.204 15.205v15.488c0 8.384 6.82 15.204 15.204 15.204h.872v30.075l-72.966-61.371c-6.018-5.062-14.758-5.062-20.775 0l-198.559 167.004c-5.25 4.416-7.123 11.434-4.773 17.879 2.351 6.445 8.302 10.61 15.162 10.61h19.017v256.009h-2.495c-8.384 0-15.204 6.821-15.204 15.205v15.488c0 8.384 6.82 15.205 15.204 15.205h364.07c8.384 0 15.204-6.821 15.204-15.205v-15.488c0-8.384-6.82-15.205-15.204-15.205h-2.495v-92.343c0-4.142-3.357-7.5-7.5-7.5s-7.5 3.358-7.5 7.5v92.343h-166.908c0-1.834 0-202.697 0-207.359 0-8.049-6.549-14.598-14.598-14.598h-101.737c-8.049 0-14.598 6.549-14.598 14.598v207.359h-31.239v-256.009h329.08v128.666c0 4.142 3.357 7.5 7.5 7.5s7.5-3.358 7.5-7.5v-128.666h19.018c6.86 0 12.812-4.165 15.162-10.61 2.349-6.445.476-13.463-4.774-17.879zm-110.592-135.709h59.824v16.57h-59.824zm0 31.571h59.824v17.175h-52.625l-7.199-6.055zm59.824 32.175v29.263l-34.792-29.263zm-276.479 149.504h100.933v21.322h-100.933zm0 36.322h100.933v170.635h-100.933zm300.336 185.635c.112 0 .204.092.204.205v15.488c0 .113-.092.205-.204.205h-364.07c-.112 0-.204-.092-.204-.205v-15.488c0-.113.092-.205.204-.205zm17.592-286.757c-.272.749-.811.749-1.069.749-16.194 0-384.201 0-397.115 0-.259 0-.797 0-1.069-.749-.273-.749.139-1.095.336-1.261l198.557-167.005c.213-.179.473-.268.733-.268s.521.089.733.268l85.292 71.739c3.643 3.064 99.689 83.848 113.264 95.265.199.167.611.513.338 1.262z"/><path d="m290.296 244.146c-6.255 0-11.344 5.089-11.344 11.344v165.217c0 6.255 5.089 11.344 11.344 11.344h87.812c6.255 0 11.344-5.089 11.344-11.344 0-7.184 0-158.024 0-165.217 0-6.255-5.089-11.344-11.344-11.344zm36.406 172.905h-32.75v-53.291h32.75zm0-68.291h-32.75v-53.291h32.75zm47.749 68.291h-32.749v-53.291h32.749zm0-68.291h-32.749v-53.291h32.749zm0-68.291h-80.499v-21.323h80.499z"/><path d="m221.84 354.669c-1.371-2.193-3.774-3.525-6.36-3.525h-15.923c-4.143 0-7.5 3.358-7.5 7.5s3.357 7.5 7.5 7.5h11.766l2.772 4.436c2.197 3.515 6.827 4.578 10.335 2.385 3.513-2.195 4.581-6.822 2.386-10.335z"/><path d="m256 75.735c-26.816 0-48.633 21.816-48.633 48.632s21.817 48.633 48.633 48.633 48.633-21.816 48.633-48.632-21.817-48.633-48.633-48.633zm-7.5 81.411c-12.532-2.866-22.413-12.747-25.279-25.279h25.279zm0-40.279h-25.279c2.867-12.531 12.748-22.412 25.279-25.279zm15 40.279v-25.279h25.279c-2.866 12.532-12.747 22.413-25.279 25.279zm0-40.279v-25.279c12.532 2.866 22.413 12.747 25.279 25.279z"/></g></g></svg>